<?xml version="1.0" standalone="no"?>
<!DOCTYPE svg PUBLIC "-//W3C//DTD SVG 20010904//EN"
 "http://www.w3.org/TR/2001/REC-SVG-20010904/DTD/svg10.dtd">
<svg version="1.0" xmlns="http://www.w3.org/2000/svg"
 width="200.000000pt" height="200.000000pt" viewBox="0 0 200.000000 200.000000"
 preserveAspectRatio="xMidYMid meet">

<g transform="translate(0.000000,200.000000) scale(0.100000,-0.100000)"
fill="#000000" stroke="none">
<path d="M740 1361 c0 -27 21 -81 31 -81 12 0 11 12 0 43 l-10 25 76 0 c46 1
91 -5 114 -15 35 -14 43 -14 78 0 23 10 68 16 114 15 76 0 77 0 71 -24 -3 -13
-2 -24 4 -24 12 0 22 24 22 55 0 22 -1 22 -92 18 -51 -3 -108 -11 -125 -19
-27 -11 -39 -11 -65 0 -18 7 -75 16 -125 19 -85 5 -93 4 -93 -12z"/>
<path d="M824 1295 c-81 -41 -84 -159 -4 -200 95 -49 197 42 156 140 -25 60
-96 88 -152 60z m121 -48 c8 -12 15 -38 15 -58 0 -29 -7 -43 -31 -63 -17 -14
-39 -26 -49 -26 -51 0 -100 49 -100 99 0 27 46 79 73 83 32 5 75 -11 92 -35z"/>
<path d="M1103 1295 c-58 -25 -85 -92 -58 -148 28 -59 92 -80 159 -52 17 8 18
3 14 -62 -4 -83 -34 -137 -98 -179 -75 -50 -191 -42 -264 18 -45 37 -46 66 -5
113 53 60 113 81 140 49 11 -14 14 -13 30 7 17 22 17 22 62 5 26 -9 60 -33 76
-52 33 -37 41 -41 41 -20 0 21 -73 82 -114 96 -20 6 -36 17 -36 23 0 6 -10 21
-22 34 l-22 23 -27 -26 c-15 -14 -25 -33 -22 -40 3 -9 -2 -14 -15 -14 -37 0
-114 -63 -133 -110 -10 -23 -29 33 -29 86 0 24 -4 44 -10 44 -18 0 -11 -103
11 -150 22 -50 66 -100 86 -100 7 0 13 -4 13 -8 0 -14 73 -32 130 -32 77 0
158 47 201 116 25 41 40 121 30 166 -6 24 -4 43 5 59 30 54 6 126 -52 154 -39
18 -50 18 -91 0z m112 -47 c14 -16 25 -38 25 -49 0 -50 -49 -99 -100 -99 -11
0 -34 13 -51 28 -24 22 -31 36 -31 66 0 88 100 122 157 54z m-196 -170 c-10
-18 -12 -19 -27 -5 -13 13 -13 19 -2 32 19 23 44 0 29 -27z"/>
</g>
</svg>
