<?xml version="1.0" encoding="utf-8"?>
<!-- Generator: Adobe Illustrator 24.2.1, SVG Export Plug-In . SVG Version: 6.00 Build 0)  -->
<svg version="1.1" id="Layer_1" xmlns="http://www.w3.org/2000/svg" xmlns:xlink="http://www.w3.org/1999/xlink" x="0px" y="0px"
	 viewBox="0 0 170 170" style="enable-background:new 0 0 170 170;" xml:space="preserve">
<style type="text/css">
	.st0{fill:#182747;}
	.st1{fill:#EE7B7B;}
	.st2{fill:#192848;}
	.st3{fill:#202F4E;}
	.st4{fill:#182848;}
	.st5{fill:#1E2C4C;}
	.st6{fill:#EA8F90;}
	.st7{fill:#E88789;}
	.st8{fill:#F08B8B;}
	.st9{fill:#F18F8F;}
	.st10{fill:#EF8282;}
	.st11{fill:#EC8585;}
	.st12{fill:#243251;}
	.st13{fill:#EF8081;}
	.st14{fill:#212F4E;}
	.st15{fill:#1C2B4B;}
</style>
<g>
	<path class="st0" d="M99,67.9c-4.5-1.6-9.1,0.8-10.7,5.4c-1,2.8,0.4,5.2,0.9,7.7c1.4,2.9,4,3.5,6.9,3.9c1.5,0.2,3.3-1.6,4.3,0.3
		c0.8,1.5,0.3,3.3,0.1,5c-0.1,1-0.5,1.9-0.9,2.8c-0.6,1.3-1.4,2.5-2.2,3.7c-1,1.6-3.3,2.1-3.3,4.4c0.4,0.8,1,0.9,1.8,0.4
		c6.3-5,9-11.3,7.1-19.2c-0.3-1.4,0.6-2.3,1-3.4C105.6,74.3,103.5,69.5,99,67.9z M99.2,81.3c-1.5,0.9-3.3,1.3-5,0.8
		c-1.9-0.5-3.4-1.8-4.2-3.6c-1.1-2.7-0.2-5.8,1.9-7.7c1.2-1.1,2.7-1.9,4.4-1.9c2.1,0,3.9,1.1,5.1,2.9c0.2,0.3,0.3,0.5,0.4,0.8
		c0.2,0.4,0.4,0.8,0.5,1.3c0.1,0.4,0.2,0.9,0.2,1.4C103.2,77.8,101.6,80.5,99.2,81.3z"/>
	<path class="st1" d="M69.7,61.2c0.5-4.1,3.2-5.6,6.9-7.3c7.5-3.4,14-0.8,20.8,1.5c0.7,0.2,1.5,0.4,1.4,1.3c-0.1,0.9-1.1,0.9-1.7,1
		c-2.3,0.4-3.9,1.3-3.1,4c-0.4,0.5-0.9,0.5-1.5,0.4C88.4,58,81.3,58,78.1,62c-0.6,0.5-1.3,0.6-2,0.3c-1.4-0.6-0.4-2.2-1.5-3.1
		c0.1,1.3,0.6,2.6-1,3.3C72.2,62.6,70.4,63.4,69.7,61.2z"/>
	<path class="st2" d="M75.5,62.7c0.6,0,1.3,0,1.9,0c4.9-0.2,9.7,0.2,14.6,0c0.5,0,1.1,0,1.6,0c1.9,0.3,3.8,0.3,5.8,0
		c1.2-0.2,2.8-1.7,3.5,0c0.6,1.6,0.5,3.7-1,5.2c-1.8-1.1-0.1-2.4-0.9-3.6c-5.1,1.3-10.7-1.2-15.6,2.3c-0.3,0.2-0.8,0.3-1,0.2
		c-3.9-3.1-8.6-1.5-12.9-2.2c-3.2-0.5-3.3,0.5-2.2,2.9c0.3,0.6,0.4,1.1-0.2,2c-2.4-1.7-2.5-4.2-2.3-6.6c0.1-1.7,1.8-0.3,2.7-0.7
		c1.4,1.1,3,0.9,4.7,0.6C74.6,62.4,75,62.4,75.5,62.7z"/>
	<path class="st3" d="M83.9,81.2c0.3-0.4,0.4-1,0.2-1.8c0-0.6,0-1.2,0-1.8c0.4-1.3,0.5-2.7,0-4c-0.5-1.1-0.9-2.2-1.5-3.2
		c-2.1-3.1-6.9-3.9-10.4-1.9c-3.9,2.2-5.4,7.4-3.3,11.4c1.6,3.2,6.2,4.8,9.6,3.5c1.1-0.4,2.1-1.2,3.3-0.8c0.7-0.3,1.3-0.6,1.8-1
		C83.7,81.4,83.8,81.3,83.9,81.2z M79.7,80.9c-0.7,0.4-1.5,0.6-2.3,0.7c-0.3,0.1-0.6,0.1-0.9,0.1c-0.3,0-0.5,0-0.9-0.1
		c-0.8-0.1-1.5-0.3-2.2-0.8c-0.5-0.3-1-0.7-1.4-1.1c-0.8-0.9-1.5-1.9-1.7-3c-0.4-1.5-0.2-3.1,0.6-4.5c0.8-1.4,2-2.2,3.5-2.7
		c0.3-0.1,0.7-0.1,1-0.2c0.8-0.1,1.5-0.1,2.3,0.1c0.5,0.1,1.1,0.4,1.6,0.6c0.5,0.3,1,0.6,1.4,1.1c0.5,0.5,0.8,1.1,1.1,1.7
		c0.2,0.4,0.4,0.8,0.5,1.2c0.6,1.5,0.4,3.5-0.5,4.9C81.3,79.7,80.6,80.4,79.7,80.9z"/>
	<path class="st4" d="M83.8,84.7c-0.1-0.2-0.1-0.3-0.1-0.5c-0.2-0.2-0.5-0.3-1-0.3c-4.9,1.5-9.3,3.8-11.5,9
		c-2.4-3.4-0.9-6.9-2.3-9.8c-2,6.9,0.3,12.6,5.2,17.5c0.3,0.3,0.6,0.4,0.9,0.5c0.8,0,1.4-0.3,1.4-1.2c-0.1-0.5-0.4-0.9-0.7-1.2
		c-3-3.7-3-4.9,0.2-8.4c1.2-1.4,2.8-2.2,4.5-2.8c1.2-0.4,2.7-0.3,3.5-1.6C83.8,85.5,83.9,85.1,83.8,84.7
		C83.8,84.8,83.8,84.7,83.8,84.7z"/>
	<path class="st0" d="M89.2,81.7c-1.7-0.8-2.5-3.5-5-2.3c-0.8,1-1.5,2.1-2.3,3.1c0.3,0.5,0.5,0.9,0.8,1.4c0.8,0.5,0.7,1.3,0.7,2.1
		c2.1,3.4,2.7,3.4,5.4-0.4c0.4-0.8-0.3-1.7,0.4-2.4C89.2,82.7,89.2,82.2,89.2,81.7z M88,84.3c0,0.1-0.1,0.3-0.1,0.4
		c0,0.3-0.1,0.5-0.2,0.8c-0.2,0.6-0.5,1.3-1.2,1.5c-0.8,0.2-1.4-0.2-1.9-0.8c-0.3-0.4-0.6-1-0.7-1.5c-0.1-0.4-0.3-0.9-0.3-1.3
		c0,0,0,0,0-0.1c-0.1-0.2-0.2-0.3-0.2-0.5c0-0.8,0.5-1.7,1.2-2.1c0.8-0.5,1.8-0.2,2.4,0.4c0.1,0.1,0.2,0.2,0.3,0.3c0,0,0,0,0,0
		c0.1,0,0.5,0.5,0.4,0.5c0.3,0.4,0.3,0.8,0.4,1.2C88.1,83.6,88.1,83.9,88,84.3z"/>
	<path class="st5" d="M92.7,103.5c-5.1,1.2-10.1,1.6-15.1-0.6c-0.3-0.3-0.4-0.7-0.4-1.1c0.2-0.6,0.7-0.9,1.3-1
		c4.4,0.9,8.8,1.6,13.2,0c0.6-0.2,1.2,0,1.7,0.4C94.3,102.3,93.9,103.1,92.7,103.5z"/>
	<path class="st6" d="M92.7,103.5c0.6-0.8,1.3-1.6,0.9-2.7c0.1-0.1,0.3-0.1,0.4-0.2c0.3,1,1.1,0.8,1.8,0.8c0.2-0.1,0.5-0.1,0.7,0
		c0.7,1.1,0.2,1.7-0.8,2.2c-1,0.3-0.8,2.3-2.3,1.8C92.6,105.2,92.9,104.2,92.7,103.5z"/>
	<path class="st7" d="M74,100.6c0.2,0,0.5,0,0.7,0c0.4,0.4,0.9,0.5,1.2,0.9c0.6,1.1,1.2,2.2,0.2,3.4c-1.5,0.7-2.1-0.3-2.9-1.3
		c-0.7-0.8-0.6-1.5-0.1-2.3C73.4,101.1,73.7,100.8,74,100.6z"/>
	<path class="st8" d="M73.2,101.3c0,0.8,0,1.6,0.1,2.3c0,0.7,0.1,1.8-0.8,1.7c-1.4-0.2-1.4-1.7-1.5-2.9
		C70.7,100.3,72.3,101.5,73.2,101.3z"/>
	<path class="st9" d="M97.9,103.5c1.1-0.3,0.3-2.4,1.9-2.1c1.3,0.3,0.7,1.3,0.4,2c-0.4,1-0.1,3.2-2.3,1.5
		C97.5,104.5,97.5,104,97.9,103.5z"/>
	<path class="st10" d="M97.9,103.5c0,0.5,0,0.9,0,1.4c-1.7,1.1-2.4,0.7-2.2-1.3c0.3-0.7,0.5-1.5,0.8-2.2
		C98.4,101.1,97.8,102.5,97.9,103.5z"/>
	<path class="st11" d="M76.1,104.9c-0.2-1.2-0.5-2.4-0.7-3.5c1.1-0.8,1.7-0.2,2.1,0.8c0,0.2,0.1,0.5,0.1,0.7
		C77.5,103.8,79.1,106.1,76.1,104.9z"/>
	<path class="st12" d="M84.2,77.6c0-1.3,0-2.7,0-4C84.9,74.9,85,76.3,84.2,77.6z"/>
	<path class="st10" d="M93.7,70.8c2.4-1,4.7-0.8,6.5,1.3c1.3,1.6,1.3,3.6,0.4,5.4c-1.5,2.9-4.2,2.6-6.9,2.3c-2.3-0.9-3-2.6-2.2-4.9
		c1.2-1.5,1.3-1.6,2.1-0.3c1,1.4,1.6,3.2,3.8,2.2c0.9-0.4,1.3-1.2,1-2.1c-0.8-2.3-2.6-1.6-4.2-1.4c-0.6,0.1-1.3,0-1.5-0.7
		C92.4,71.8,92.4,70.9,93.7,70.8z"/>
	<path class="st13" d="M73.6,71c4.1-1.3,6.8-0.4,7.8,2.6c1,2.9-1,6.1-4,6.3c-1.4,0.1-2.9-0.1-4.3-0.2c-0.5-0.8-1.1-1.5-1.6-2.3
		c-0.6-0.8-0.3-1.7-0.3-2.6c1.8-1.6,2.6,0,3.7,1.1c1.9,2,3,1.6,4-1.3c-0.3-0.7-0.7-1.3-1.4-1.6c-0.9-0.5-1.8-0.1-2.6,0.3
		c-0.8,0.3-1.6,0.5-2.1-0.4C72.2,72,73,71.5,73.6,71z"/>
	<path class="st12" d="M82.8,77.3c0-1.2,0-2.4,0-3.6C83.7,74.9,83.7,76.1,82.8,77.3z"/>
	<path class="st14" d="M76.1,100.1c0.7,0.4,1.5,0.9,2.2,1.3c-0.3,0.3-0.5,0.6-0.8,0.8c-0.6-0.6-1.2-1.1-2.1-0.8
		c-0.2-0.3-0.5-0.5-0.7-0.8C75.1,100.4,75.6,100.2,76.1,100.1z"/>
	<path class="st15" d="M98.7,92.5c-1.8-4.6-6.2-5.7-10.2-7.2c0.1-0.8-0.1-1.6,0.7-2.2c0,0.7,0.2,1.1,1.1,1.3
		c3.8,0.9,7.3,2.6,9.4,6.1C100.3,91.6,101.3,93.1,98.7,92.5z"/>
</g>
</svg>
