<?xml version="1.0" standalone="no"?>
<!DOCTYPE svg PUBLIC "-//W3C//DTD SVG 20010904//EN"
 "http://www.w3.org/TR/2001/REC-SVG-20010904/DTD/svg10.dtd">
<svg version="1.0" xmlns="http://www.w3.org/2000/svg"
 width="200.000000pt" height="200.000000pt" viewBox="0 0 200.000000 200.000000"
 preserveAspectRatio="xMidYMid meet">

<g transform="translate(0.000000,200.000000) scale(0.100000,-0.100000)"
fill="#000000" stroke="none">
<path d="M1471 1291 c1 -17 3 -20 6 -8 3 13 15 17 48 17 24 0 47 -5 50 -10 4
-7 12 -7 25 0 27 14 97 13 103 -2 3 -7 6 -4 6 8 1 19 -3 20 -59 13 -33 -4 -87
-4 -120 0 -60 7 -60 7 -59 -18z"/>
<path d="M291 1292 c0 -7 -5 -10 -11 -7 -15 9 -13 -188 2 -203 13 -13 92 -15
122 -3 19 7 19 8 0 16 -10 4 -36 7 -56 6 l-38 -3 -1 49 c-1 51 -15 167 -18
145z"/>
<path d="M1094 1284 c3 -9 6 -18 6 -20 0 -2 14 -4 30 -4 l30 0 0 -62 c0 -77
-16 -111 -54 -118 -26 -4 -27 -6 -13 -19 26 -21 66 -5 81 32 7 18 16 67 20
110 6 76 5 78 -20 87 -14 6 -39 10 -56 10 -23 0 -29 -4 -24 -16z"/>
<path d="M1241 1267 c-7 -10 -8 -31 -1 -73 6 -32 10 -79 11 -104 0 -25 3 -39
6 -32 2 6 9 10 14 6 5 -3 9 13 9 35 0 39 11 53 25 31 9 -14 56 -1 80 21 28 27
26 86 -4 110 -28 23 -122 27 -140 6z m110 -27 c22 -12 25 -52 6 -69 -8 -6 -28
-14 -45 -17 -27 -6 -32 -4 -32 14 0 11 -3 34 -6 51 -6 30 -5 31 25 31 18 0 41
-5 52 -10z"/>
<path d="M1496 1264 c-40 -39 -6 -102 50 -91 13 2 24 0 24 -4 0 -5 -5 -9 -12
-9 -7 0 -25 -12 -40 -27 -29 -28 -33 -25 -31 26 1 7 -3 9 -8 4 -13 -13 8 -77
35 -102 49 -46 145 -34 180 22 7 12 16 53 20 91 4 57 2 73 -11 88 -20 22 -42
23 -71 2 -44 -31 -12 -102 43 -92 23 5 25 2 25 -28 l0 -33 -24 22 c-34 32 -80
62 -89 59 -4 -1 -5 9 -1 22 12 48 -55 85 -90 50z m68 -13 c23 -25 13 -59 -20
-67 -30 -8 -54 11 -54 40 0 45 44 61 74 27z m127 9 c37 -20 18 -80 -26 -80
-42 0 -59 44 -29 74 18 19 28 20 55 6z m-86 -79 c3 -5 1 -12 -5 -16 -5 -3 -10
1 -10 9 0 18 6 21 15 7z m55 -49 c36 -31 33 -50 -9 -75 -82 -48 -194 28 -116
79 14 9 34 14 45 11 11 -3 23 -1 26 4 9 15 22 10 54 -19z"/>
<path d="M977 1259 c-9 -5 -22 -7 -27 -4 -6 3 -10 1 -10 -5 0 -6 -4 -8 -10 -5
-6 4 -10 -21 -10 -68 0 -59 3 -76 16 -81 23 -9 24 -8 24 22 0 43 20 103 37
109 20 8 29 -9 37 -68 7 -52 22 -64 32 -25 8 34 -13 103 -39 121 -25 18 -26
18 -50 4z"/>
<path d="M490 1242 c-60 -29 -78 -97 -39 -146 20 -26 42 -32 73 -20 24 9 19
19 -11 21 -27 1 -53 26 -53 50 0 8 13 13 39 13 40 0 54 10 65 46 4 14 1 28 -9
38 -20 20 -22 20 -65 -2z m38 -34 c-3 -7 -15 -14 -29 -16 -23 -2 -23 -2 -5 13
24 18 39 20 34 3z"/>
<path d="M796 1244 c-10 -26 14 -164 29 -164 20 0 23 10 13 57 -13 61 2 97 38
90 19 -3 24 -1 22 12 -4 20 -44 27 -64 10 -13 -10 -17 -10 -23 0 -6 10 -10 8
-15 -5z"/>
<path d="M616 1226 c4 -10 18 -16 35 -16 22 0 34 -8 49 -32 30 -50 27 -68 -14
-68 -19 0 -37 4 -41 9 -7 13 22 41 43 41 15 0 15 1 1 16 -13 12 -20 13 -42 3
-34 -16 -43 -44 -23 -74 14 -21 24 -25 70 -25 62 0 69 8 56 66 -14 63 -40 89
-93 92 -39 3 -46 0 -41 -12z"/>
</g>
</svg>
